<svg xmlns="http://www.w3.org/2000/svg" viewBox="0 0 66 33" version="1"><path fill="#fff" fill-opacity="0" d="M0 0h66v33H0z" pointer-events="none"></path><defs><path id="a" d="M0 0h850v1134H0V0z"></path></defs><path fill="none" d="M0-1z"></path><g class="currentLayer" transform="matrix(.0049 0 0 .00494 0 -1)"><g class="selected"><path fill="none" stroke="#5b5b5b" stroke-width="8" d="M1876 3770c-80 0-163-15-249-44a700 700 0 0 1-402-359c-43-88-64-189-64-300V238H220v2825c0 289 51 540 153 751 102 212 233 386 394 523s338 238 530 305c193 67 381 101 563 101s371-34 567-101c1045-358 1098-1318 1098-1798h-933c-2 206-18 410-77 523-45 87-101 161-168 220a737 737 0 0 1-471 183z" class="fil1 str0"></path><path fill="#5b5b5b" d="M1876 3770c-80 0-163-15-249-44a700 700 0 0 1-402-359c-43-88-64-189-64-300V238H220v2825c0 289 51 540 153 751 102 212 233 386 394 523s338 238 530 305c193 67 381 101 563 101s371-34 567-101c1045-358 1098-1318 1098-1798h-933c-2 206-18 410-77 523-45 87-101 161-168 220a737 737 0 0 1-471 183z" class="fil2"></path><path fill="#5b5b5b" d="M2634 1455H1081v-31h1553l15 16-15 15zm0-31h15v16l-15-16zm-16 967v-951h31v951l-15 16-16-16zm31 0v16h-15l15-16zm-1568-15h1553v31H1081l-15-16 15-15zm0 31h-15v-16l15 16zm16-967v951h-31v-951l15-16 16 16zm-31 0v-16h15l-15 16z" class="fil2"></path><path fill="#5b5b5b" d="M1081 1440h1553v951H1081z" class="fil3"></path><path fill="none" stroke="#5b5b5b" stroke-width="8" d="M7832 3088c0-80-15-163-44-249-30-86-74-164-136-233a708 708 0 0 0-223-169c-89-43-189-64-301-64h-727v1423h727c112 0 212-23 301-69a745 745 0 0 0 355-394c32-83 48-164 48-245zM5468 1432h1656c290 0 540 51 752 153s386 233 523 394a1714 1714 0 0 1 406 1093 1751 1751 0 0 1-409 1109 1585 1585 0 0 1-521 406 1564 1564 0 0 1-745 149h-729v1174h-933V1432z" class="fil1 str0"></path><path fill="#5b5b5b" d="M7832 3088c0-80-15-163-44-249-30-86-74-164-136-233a708 708 0 0 0-223-169c-89-43-189-64-301-64h-727v1423h727c112 0 212-23 301-69a745 745 0 0 0 355-394c32-83 48-164 48-245zM5468 1432h1656c290 0 540 51 752 153s386 233 523 394a1714 1714 0 0 1 406 1093 1751 1751 0 0 1-409 1109 1585 1585 0 0 1-521 406 1564 1564 0 0 1-745 149h-729v1174h-933V1432z" class="fil2"></path><path fill="none" stroke="#5b5b5b" stroke-width="8" d="M7832 3088c0-80-15-163-44-249-30-86-74-164-136-233a708 708 0 0 0-223-169c-89-43-189-64-301-64h-727v1423h727c112 0 212-23 301-69a745 745 0 0 0 355-394c32-83 48-164 48-245zM5468 1432h1656c290 0 540 51 752 153s386 233 523 394a1714 1714 0 0 1 406 1093 1751 1751 0 0 1-409 1109 1585 1585 0 0 1-521 406 1564 1564 0 0 1-745 149h-729v1174h-933V1432z" class="fil1 str0"></path><path fill="#5b5b5b" d="M7832 3088c0-80-15-163-44-249-30-86-74-164-136-233a708 708 0 0 0-223-169c-89-43-189-64-301-64h-727v1423h727c112 0 212-23 301-69a745 745 0 0 0 355-394c32-83 48-164 48-245zM5468 1432h1656c290 0 540 51 752 153s386 233 523 394a1714 1714 0 0 1 406 1093 1751 1751 0 0 1-409 1109 1585 1585 0 0 1-521 406 1564 1564 0 0 1-745 149h-729v1174h-933V1432zM4007 1445v3302h-78V1445l39-38 39 38zm-78 0v-38h39l-39 38zm911 39h-872v-77h872l39 38-39 39zm0-77h39v38l-39-38zm-38 3340V1445h77v3302l-39 39-38-39zm77 0v39h-39l39-39zm-911-39h872v78h-872l-39-39 39-39zm0 78h-39v-39l39 39z" class="fil2"></path><path fill="#5b5b5b" d="M3968 4747V1445h872v3302z" class="fil2"></path><path fill="none" stroke="#5b5b5b" stroke-width="8" d="M7832 3088c0-80-15-163-44-249-30-86-74-164-136-233a708 708 0 0 0-223-169c-89-43-189-64-301-64h-727v1423h727c112 0 212-23 301-69a745 745 0 0 0 355-394c32-83 48-164 48-245zM5468 1432h1656c290 0 540 51 752 153s386 233 523 394a1714 1714 0 0 1 406 1093 1751 1751 0 0 1-409 1109 1585 1585 0 0 1-521 406 1564 1564 0 0 1-745 149h-729v1174h-933V1432z" class="fil1 str0"></path><path fill="#5b5b5b" d="M7832 3088c0-80-15-163-44-249-30-86-74-164-136-233a708 708 0 0 0-223-169c-89-43-189-64-301-64h-727v1423h727c112 0 212-23 301-69a745 745 0 0 0 355-394c32-83 48-164 48-245zM5468 1432h1656c290 0 540 51 752 153s386 233 523 394a1714 1714 0 0 1 406 1093 1751 1751 0 0 1-409 1109 1585 1585 0 0 1-521 406 1564 1564 0 0 1-745 149h-729v1174h-933V1432z" class="fil2"></path><path fill="none" stroke="#5b5b5b" stroke-width="8" d="M10807 4747V1445h872v3302z" class="fil1 str1"></path><path fill="#5b5b5b" d="M10807 4747V1445h872v3302z" class="fil2"></path><path fill="none" stroke="#5b5b5b" stroke-width="8" d="M9257 4747V238h873v4509z" class="fil1 str1"></path><path fill="#5b5b5b" d="M9257 4747V238h873v4509z" class="fil2"></path><path fill="#ef7f1a" d="M12898 4653l567 535-170 178-171 166-172 156-174 145-174 134-176 122-176 112-179 101-179 89-181 77-183 66-183 53-185 42-185 29-186 17-185 5-186-8-185-20-185-32-183-45-182-56-181-67-179-79-177-90-177-100-174-111-173-122-172-132-171-142-169-152-169-162-167-172 563-540 150 155 150 143 148 134 148 123 146 112 146 102 144 92 143 81 141 72 140 62 139 51 137 43 137 33 135 23 135 15 134 6 135-4 135-12 135-21 136-31 138-40 139-50 140-61 142-70 143-81 145-91 147-103 148-113 149-125 150-136 152-147z"></path><g><path fill="none" stroke="#5b5b5b" stroke-width="31" d="M3968 228h872v873h-872z" class="fil0"></path><path fill="#5b5b5b" d="M3968 228h872v873h-872z" class="fil3"></path></g><path fill="#ef7f1a" d="M10767 200h952v952h-952z"></path></g></g></svg>
