<svg width="24" height="25" viewBox="0 0 24 25" fill="none" xmlns="http://www.w3.org/2000/svg">
<g id="Star">
<path id="Star 10" d="M11.0489 3.45098C11.3483 2.52967 12.6517 2.52967 12.9511 3.45098L14.4697 8.12474C14.6035 8.53676 14.9875 8.81572 15.4207 8.81572H20.335C21.3037 8.81572 21.7065 10.0553 20.9228 10.6247L16.947 13.5133C16.5966 13.7679 16.4499 14.2193 16.5838 14.6313L18.1024 19.3051C18.4017 20.2264 17.3472 20.9925 16.5635 20.4231L12.5878 17.5346C12.2373 17.2799 11.7627 17.2799 11.4122 17.5346L7.43648 20.4231C6.65276 20.9925 5.59828 20.2264 5.89763 19.3051L7.41623 14.6313C7.55011 14.2193 7.40345 13.7679 7.05296 13.5133L3.07722 10.6247C2.29351 10.0553 2.69628 8.81572 3.66501 8.81572H8.57929C9.01252 8.81572 9.39647 8.53676 9.53035 8.12474L11.0489 3.45098Z" fill="#ECC600"/>
<g id="Mask group">
<mask id="mask0_10_34" style="mask-type:alpha" maskUnits="userSpaceOnUse" x="2" y="2" width="20" height="19">
<path id="Star 12" d="M11.0489 3.45098C11.3483 2.52967 12.6517 2.52967 12.9511 3.45098L14.4697 8.12474C14.6035 8.53676 14.9875 8.81572 15.4207 8.81572H20.335C21.3037 8.81572 21.7065 10.0553 20.9228 10.6247L16.947 13.5133C16.5966 13.7679 16.4499 14.2193 16.5838 14.6313L18.1024 19.3051C18.4017 20.2264 17.3472 20.9925 16.5635 20.4231L12.5878 17.5346C12.2373 17.2799 11.7627 17.2799 11.4122 17.5346L7.43648 20.4231C6.65276 20.9925 5.59828 20.2264 5.89763 19.3051L7.41623 14.6313C7.55011 14.2193 7.40345 13.7679 7.05296 13.5133L3.07722 10.6247C2.29351 10.0553 2.69628 8.81572 3.66501 8.81572H8.57929C9.01252 8.81572 9.39647 8.53676 9.53035 8.12474L11.0489 3.45098Z" fill="#ECC600"/>
</mask>
<g mask="url(#mask0_10_34)">
<path id="Star 11" d="M12 0.523926L21.6819 1.90705C22.1567 1.97488 22.5165 2.37032 22.5393 2.84943L23.4353 21.6654C23.4674 22.3393 22.8368 22.8509 22.184 22.6806L12.7476 20.2189C12.3072 20.1041 12 19.7064 12 19.2513V0.523926Z" fill="#DEDEDE"/>
</g>
</g>
</g>
</svg>
